<?xml version="1.0" standalone="no"?>
<!DOCTYPE svg PUBLIC "-//W3C//DTD SVG 20010904//EN"
 "http://www.w3.org/TR/2001/REC-SVG-20010904/DTD/svg10.dtd">
<svg width="280px" height="235px" viewBox="0 0 280 235" version="1.1" xmlns="http://www.w3.org/2000/svg" xmlns:xlink="http://www.w3.org/1999/xlink">
    <!-- Generator: Sketch 48.1 (47250) - http://www.bohemiancoding.com/sketch -->
    <desc>Created with Sketch.</desc>
    <defs></defs>
    <g id="Page-1" stroke="none" stroke-width="1" fill="none" fill-rule="evenodd">
        <path d="M26,0 L174,87 L222,60 L222,90 L170,120 L4,16 L26,0 Z M147,64 L221,22 L221,53 L175,80 L147,64 Z M227,20 L248,6 L248,233 L227,221 L227,20 Z M257,6 L280,20 L280,220 L257,235 L257,6 Z M0,21 L167,125 L167,221 L143,235 L143,136 L21,61 L21,233 L0,221 L0,21 Z M29,72 L53,88 L53,222 L29,235 L29,72 Z M113,125 L135,139 L135,233 L113,220 L113,125 Z" id="Combined-Shape" fill="#8361BD"></path>
    </g>
</svg>
